<svg id="harness-racing" viewBox="0 0 31.991 17.632">
        <path d="M29.239 1.568c-.096-.064-.192-.16-.288-.224C28.663.672 28.727 0 28.727 0c-.352.256-.608.832-.736 1.12-.48-.128-3.328-.608-7.136 3.52 0 0 .704-.32 1.504-.288-.8.288-1.76.448-2.784.448s-1.344-.224-3.52-.416c-.736-.064-1.888.064-2.784.608-.384-.544-1.664-1.12-2.88.128-.8.768-1.664 1.472-2.56 2.048-.544.192-1.216.352-1.728.256-.64-.16-1.152-1.216-1.632-1.76-.128-.128-.64-.352-.672-.448 0-.064 0-.096.032-.128.608-.064 1.152-.448.992-1.344 0-.16-.064-.32-.096-.448l.384-.032c.064 0 .16-.096.16-.192 0-.064-.064-.16-.16-.16h-.352c-.224-.288-.768-.672-1.088-.672-.64 0-1.344.352-1.344 1.12 0 .352.128.704.32.992.064.128.128.352.064.448-.32.352-2.176 1.248-2.016 5.024.032.672-.576.384-.672.96-.192 1.12.8 1.12 3.584 1.184a3.4 3.4 0 0 0-.704 2.08c0 1.92 1.536 3.488 3.456 3.488s3.456-1.568 3.456-3.488c0-.384-.064-.768-.192-1.152.16-.128.288-.256.352-.288.128-.096 2.464-1.504 3.616-2.24-.384-.544-.736-1.344-.768-1.568 0 0 .448.736 1.44 1.184.096.096.544.608.224 1.504-.384.992-.864.672-.416 1.376.48.704 2.464 2.784 2.304 3.328-.128.512.672 1.44.672 1.44 1.152-1.952-1.216-4.096-1.6-4.704-.352-.64.448-1.632.448-1.632 1.376-2.176.832-4.384.832-4.384.608 1.024.288 2.368.288 2.368.416.416 1.76.864 2.88 1.216.512.544 1.248 1.248 1.76 1.536.96.544 1.632 1.152 1.536 1.408s-1.664.8-1.856.768c-.224 0-.928-.384-.928-.384s-1.056-.864-1.12-.864c-.8-.032-1.248.288-1.248.288l.128.096c.416.224 3.008 1.728 3.008 1.728s2.24-.32 3.168-1.12c.48-.416-.16-1.248-.544-1.952l-.48-.864c.384-.128.864-.32 1.312-.512 1.312.192 2.848.448 2.944.512.192.128.256 1.504-.16 3.104l-1.152.832.768 1.216s1.088-1.024 1.344-3.008c.288-2.24.192-2.88.192-2.88s-1.28-.8-2.24-1.344c.224-.832.256-1.696.256-1.696C27.415 5.952 28.215 4 28.215 4c.416 1.088 1.504.96 1.696 1.184.192.256.288.96.96.736s1.12-1.088 1.12-1.088l-2.752-3.264zM3.863 8.48l-.032-.992s.544.608 1.184.928c-.416.096-.8.128-1.152.064zm7.744 1.504c-.256.32-1.472.608-2.144 1.728-.096.16-.16.256-.256.384-.16-.192-.288-.384-.448-.512l3.072-2.272c-.064.384-.096.512-.224.672zm.32-2.848c0 .448-.032.832-.032 1.152l-3.808 2.784c-.032-.032-.096-.032-.16-.064.032-.768.256-2.208 1.696-2.88 2.016-.96 1.12-3.296 3.04-2.72h.032c-.416.416-.704.992-.768 1.728z" />
    </svg>